<?xml version="1.0" encoding="UTF-8" standalone="no"?>
<!-- Created with Inkscape (http://www.inkscape.org/) -->

<svg
   width="300"
   height="300"
   viewBox="0 0 300 300"
   version="1.1"
   id="svg1"
   xml:space="preserve"
   xmlns="http://www.w3.org/2000/svg"
   xmlns:svg="http://www.w3.org/2000/svg"><defs
     id="defs1" /><g
     id="layer4"><g
       id="g20"
       transform="matrix(0.80460558,0,0,0.80460558,-3187.1909,-459.9874)"
       style="display:inline;fill:#9437ac;fill-opacity:1"><path
         style="fill:#9437ac;fill-opacity:1;stroke:none;stroke-width:11.8773"
         d="m 1008.272,-250.96891 -9.56054,18.03907 9.64454,17.57226 9.5605,-18.04101 z"
         transform="translate(3141.2018,1159.9041)"
         id="path10" /><path
         style="fill:#9437ac;fill-opacity:1;stroke:none;stroke-width:11.8773"
         d="m 1078.0611,-382.65445 -60.2637,113.70898 9.6465,17.57227 60.2636,-113.70704 z"
         transform="translate(3141.2018,1159.9041)"
         id="path9" /><path
         style="fill:#9437ac;fill-opacity:1;stroke:none;stroke-width:11.8773"
         d="m 934.57278,-385.23258 -9.56054,18.04102 63.91015,116.42968 9.56055,-18.04101 z"
         transform="translate(3141.2018,1159.9041)"
         id="path8" /><path
         style="fill:#9437ac;fill-opacity:1;stroke:none;stroke-width:11.8773"
         d="m 1096.9419,-418.27945 -9.3535,17.64843 9.6465,17.57422 9.3535,-17.65039 z"
         transform="translate(3141.2018,1159.9041)"
         id="path7" /><path
         style="fill:#9437ac;fill-opacity:1;stroke:none;stroke-width:11.8773"
         d="m 914.99466,-420.9025 -9.5625,18.04101 9.79297,17.83985 9.56054,-18.04102 z"
         transform="translate(3141.2018,1159.9041)"
         id="path6" /><path
         style="fill:#9437ac;fill-opacity:1;stroke:none;stroke-width:11.8773"
         d="m 1004.3638,-516.91617 -60.26367,113.70898 63.91017,116.42969 60.2637,-113.70703 z"
         transform="translate(3141.2018,1159.9041)"
         id="path5" /><path
         style="fill:#9437ac;fill-opacity:1;stroke:none;stroke-width:11.8773"
         d="m 1023.2447,-552.54117 -9.3555,17.65039 63.9121,116.42969 9.3535,-17.6504 z"
         transform="translate(3141.2018,1159.9041)"
         id="path4" /><path
         style="fill:#9437ac;fill-opacity:1;stroke:none;stroke-width:11.8773"
         d="m 984.78372,-552.58607 -60.26367,113.70898 9.79297,17.83984 60.26367,-113.70898 z"
         transform="translate(3141.2018,1159.9041)"
         id="path3" /><path
         style="fill:#9437ac;fill-opacity:1;stroke:none;stroke-width:11.8773"
         d="m 1003.6646,-588.21107 -9.35549,17.65039 9.79299,17.83984 9.3554,-17.65039 z"
         transform="translate(3141.2018,1159.9041)"
         id="path2" /><path
         style="fill:#9437ac;fill-opacity:1;stroke:none;stroke-width:45.171"
         d="m 4236.7576,571.69463 -35.5726,67.11935 36.687,66.83713 35.5726,-67.12681 z"
         id="path11" /></g></g></svg>
